<svg xmlns="http://www.w3.org/2000/svg" xmlns:xlink="http://www.w3.org/1999/xlink" width="500" zoomAndPan="magnify" viewBox="0 0 375 374.999991" height="500" preserveAspectRatio="xMidYMid meet" version="1.0"><defs><g/><clipPath id="1f6caa5148"><path d="M 26.042969 210.605469 L 268.707031 210.605469 L 268.707031 224.273438 L 26.042969 224.273438 Z M 26.042969 210.605469 " clip-rule="nonzero"/></clipPath></defs><rect x="-37.5" width="450" fill="#ffffff" y="-37.499999" height="449.999989" fill-opacity="1"/><rect x="-37.5" width="450" fill="#fffafa" y="-37.499999" height="449.999989" fill-opacity="1"/><g fill="#737373" fill-opacity="1"><g transform="translate(233.84744, 208.060357)"><g><path d="M 1.328125 -6.332031 L 1.328125 -0.816406 C 1.328125 0.714844 1.632812 1.125 1.632812 2.550781 L 2.550781 16.539062 C 2.960938 19.09375 2.449219 22.464844 4.492188 22.464844 C 6.125 22.464844 6.125 19.296875 6.332031 17.765625 C 7.554688 10.109375 14.5 -12.761719 19.09375 -15.828125 C 19.503906 -11.128906 20.625 -5.003906 23.28125 -1.019531 C 24.503906 0.511719 25.832031 1.125 27.160156 1.125 C 30.324219 1.125 33.492188 -2.246094 35.839844 -4.59375 C 36.554688 -5.207031 36.859375 -5.617188 37.472656 -6.332031 L 40.84375 -10.3125 C 41.351562 -10.925781 42.167969 -11.4375 42.167969 -12.558594 C 42.167969 -13.375 41.558594 -13.578125 41.046875 -13.578125 C 40.84375 -13.578125 40.636719 -13.578125 40.433594 -13.476562 L 37.167969 -9.902344 C 34.917969 -7.25 31.550781 -3.265625 28.589844 -1.941406 C 28.078125 -1.734375 27.671875 -1.53125 27.160156 -1.53125 C 22.15625 -1.53125 23.28125 -18.378906 19.707031 -18.378906 C 16.949219 -18.378906 15.316406 -15.007812 14.089844 -12.457031 C 9.496094 -3.574219 7.964844 1.226562 5.410156 10.515625 C 5.410156 10.617188 5.308594 11.128906 5.207031 11.230469 L 5.105469 11.539062 C 5.105469 11.539062 5.003906 11.640625 5.003906 11.742188 C 5.003906 10.210938 4.800781 9.800781 4.800781 8.578125 C 4.695312 7.351562 4.800781 6.125 4.800781 4.902344 C 4.59375 1.835938 3.777344 -10.722656 5.105469 -12.457031 C 6.332031 -13.988281 7.964844 -15.214844 11.027344 -19.910156 C 16.4375 -27.875 21.035156 -36.859375 22.972656 -46.765625 C 23.789062 -50.441406 24.300781 -55.953125 22.972656 -59.324219 C 22.359375 -61.261719 21.035156 -63 18.789062 -63 C 12.152344 -63 6.941406 -44.925781 5.820312 -40.738281 C 3.265625 -30.835938 1.328125 -18.789062 1.328125 -6.332031 Z M 5.003906 -15.007812 C 5.003906 -26.035156 9.292969 -49.316406 16.4375 -58.710938 C 17.359375 -59.832031 18.074219 -60.34375 18.683594 -60.34375 C 21.035156 -60.34375 21.644531 -53.808594 20.320312 -47.171875 C 18.890625 -39.617188 15.417969 -30.9375 11.539062 -24.402344 C 10.414062 -22.464844 6.535156 -16.132812 5.003906 -15.007812 Z M 5.003906 -15.007812 "/></g></g></g><g fill="#737373" fill-opacity="1"><g transform="translate(272.132617, 208.060357)"><g><path d="M 4.695312 21.644531 C 4.695312 20.011719 4.59375 18.277344 4.59375 16.644531 C 4.695312 15.519531 4.902344 15.519531 4.902344 14.398438 C 5.003906 10.109375 5.921875 4.390625 6.023438 2.757812 C 7.554688 3.164062 11.945312 8.476562 18.074219 8.476562 C 22.769531 8.476562 27.363281 -1.019531 29.710938 -5.410156 C 30.425781 -6.535156 32.367188 -10.414062 32.367188 -11.539062 C 32.367188 -11.945312 32.164062 -12.253906 31.753906 -12.253906 C 31.242188 -12.253906 30.53125 -11.742188 29.710938 -10.007812 L 25.527344 -2.042969 C 22.15625 3.472656 20.523438 6.332031 17.664062 6.332031 C 15.214844 6.332031 8.679688 2.65625 7.148438 0.511719 C 8.371094 -0.304688 9.496094 -0.917969 10.722656 -1.835938 C 11.742188 -2.449219 13.070312 -3.574219 14.089844 -4.390625 C 19.09375 -9.597656 19.398438 -17.152344 14.601562 -17.152344 C 11.539062 -17.152344 9.496094 -13.375 8.269531 -10.925781 L 7.964844 -10.3125 C 6.941406 -8.476562 4.695312 -2.042969 4.695312 0.304688 L 4.390625 0.304688 C 4.390625 -2.757812 4.390625 -5.820312 4.59375 -8.578125 C 4.800781 -9.902344 4.59375 -11.640625 4.59375 -13.070312 C 4.695312 -15.316406 5.105469 -15.113281 6.023438 -16.234375 C 13.988281 -26.035156 21.441406 -44.925781 21.441406 -57.484375 C 21.441406 -61.570312 19.808594 -64.835938 17.359375 -64.835938 C 15.007812 -64.835938 11.945312 -61.773438 8.78125 -53.605469 C 8.476562 -52.789062 8.371094 -51.972656 7.964844 -51.15625 C 4.695312 -42.679688 2.859375 -25.933594 2.246094 -16.746094 C 2.144531 -15.828125 1.941406 -14.191406 2.042969 -13.683594 C 2.246094 -11.945312 1.734375 -3.265625 1.734375 -0.816406 C 1.734375 3.265625 2.042969 20.523438 2.65625 21.542969 C 2.960938 22.054688 3.265625 22.15625 3.574219 22.15625 C 3.878906 22.15625 4.289062 21.851562 4.695312 21.644531 Z M 5.105469 -17.359375 C 5.105469 -19.910156 5.410156 -21.75 5.511719 -23.996094 C 6.636719 -34.917969 7.65625 -40.945312 10.824219 -51.257812 C 11.4375 -52.992188 14.804688 -62.589844 17.253906 -62.589844 C 17.359375 -62.589844 17.460938 -62.589844 17.5625 -62.589844 C 18.890625 -61.773438 19.398438 -59.015625 19.398438 -56.871094 C 19.503906 -53.402344 18.074219 -46.96875 17.050781 -43.804688 L 12.96875 -32.570312 C 12.660156 -31.652344 12.253906 -30.835938 11.84375 -29.917969 C 10.617188 -26.648438 8.167969 -21.542969 6.023438 -18.582031 L 5.511719 -18.074219 Z M 7.148438 -2.144531 C 7.761719 -4.59375 11.230469 -15.113281 14.601562 -15.113281 C 16.847656 -15.113281 16.949219 -9.292969 10.210938 -4.085938 Z M 7.148438 -2.144531 "/></g></g></g><g clip-path="url(#1f6caa5148)"><path fill="#fffafa" d="M 26.042969 210.605469 L 268.714844 210.605469 L 268.714844 224.273438 L 26.042969 224.273438 Z M 26.042969 210.605469 " fill-opacity="1" fill-rule="nonzero"/></g><path fill="#737373" d="M 238.617188 194.355469 C 230.785156 195.964844 223.230469 196.726562 215.226562 196.363281 C 207.222656 196 199.292969 194.625 191.472656 192.878906 C 183.539062 191.109375 175.695312 188.949219 167.789062 187.058594 C 161.425781 185.53125 154.488281 184.175781 148.308594 187.132812 C 142.839844 189.738281 138.707031 196.925781 142.816406 202.425781 C 143.160156 202.894531 144.125 202.636719 143.863281 201.984375 C 141.136719 195.476562 145.851562 189.554688 152.09375 187.933594 C 159.058594 186.121094 166.648438 188.71875 173.402344 190.378906 C 187.292969 193.773438 201.246094 197.457031 215.597656 197.957031 C 223.226562 198.21875 231.554688 197.5625 238.785156 194.980469 C 238.871094 194.957031 238.933594 194.90625 238.976562 194.828125 C 239.019531 194.75 239.03125 194.667969 239.007812 194.582031 C 238.984375 194.5 238.933594 194.433594 238.855469 194.390625 C 238.78125 194.34375 238.699219 194.332031 238.613281 194.355469 Z M 238.617188 194.355469 " fill-opacity="1" fill-rule="nonzero"/><g fill="#737373" fill-opacity="1"><g transform="translate(139.19232, 222.451759)"><g><path d="M 10.359375 -10.265625 L 10.359375 0 L 8.890625 0 L 8.890625 -4.578125 L 3 -4.578125 L 3 0 L 1.53125 0 L 1.53125 -10.265625 L 3 -10.265625 L 3 -5.84375 L 8.890625 -5.84375 L 8.890625 -10.265625 Z M 10.359375 -10.265625 "/></g></g></g><g fill="#737373" fill-opacity="1"><g transform="translate(152.680272, 222.451759)"><g><path d="M 8.078125 -2.5625 L 2.625 -2.5625 L 1.5 0 L -0.015625 0 L 4.625 -10.265625 L 6.078125 -10.265625 L 10.75 0 L 9.203125 0 Z M 7.5625 -3.734375 L 5.34375 -8.765625 L 3.140625 -3.734375 Z M 7.5625 -3.734375 "/></g></g></g><g fill="#737373" fill-opacity="1"><g transform="translate(164.99541, 222.451759)"><g><path d="M 8.390625 0 L 6.1875 -3.15625 C 5.914062 -3.132812 5.703125 -3.125 5.546875 -3.125 L 3 -3.125 L 3 0 L 1.53125 0 L 1.53125 -10.265625 L 5.546875 -10.265625 C 6.867188 -10.265625 7.910156 -9.945312 8.671875 -9.3125 C 9.429688 -8.675781 9.8125 -7.800781 9.8125 -6.6875 C 9.8125 -5.894531 9.613281 -5.21875 9.21875 -4.65625 C 8.832031 -4.101562 8.28125 -3.695312 7.5625 -3.4375 L 10 0 Z M 5.5 -4.375 C 6.425781 -4.375 7.132812 -4.570312 7.625 -4.96875 C 8.113281 -5.363281 8.359375 -5.9375 8.359375 -6.6875 C 8.359375 -7.425781 8.113281 -7.992188 7.625 -8.390625 C 7.132812 -8.785156 6.425781 -8.984375 5.5 -8.984375 L 3 -8.984375 L 3 -4.375 Z M 5.5 -4.375 "/></g></g></g><g fill="#737373" fill-opacity="1"><g transform="translate(177.237248, 222.451759)"><g><path d="M 1.53125 -10.265625 L 3 -10.265625 L 3 0 L 1.53125 0 Z M 1.53125 -10.265625 "/></g></g></g><g fill="#737373" fill-opacity="1"><g transform="translate(183.365768, 222.451759)"><g><path d="M 4.875 -4.5625 L 3 -2.65625 L 3 0 L 1.53125 0 L 1.53125 -10.265625 L 3 -10.265625 L 3 -4.53125 L 8.578125 -10.265625 L 10.25 -10.265625 L 5.859375 -5.640625 L 10.515625 0 L 8.8125 0 Z M 4.875 -4.5625 "/></g></g></g><g fill="#737373" fill-opacity="1"><g transform="translate(195.490313, 222.451759)"><g><path d="M 8.390625 0 L 6.1875 -3.15625 C 5.914062 -3.132812 5.703125 -3.125 5.546875 -3.125 L 3 -3.125 L 3 0 L 1.53125 0 L 1.53125 -10.265625 L 5.546875 -10.265625 C 6.867188 -10.265625 7.910156 -9.945312 8.671875 -9.3125 C 9.429688 -8.675781 9.8125 -7.800781 9.8125 -6.6875 C 9.8125 -5.894531 9.613281 -5.21875 9.21875 -4.65625 C 8.832031 -4.101562 8.28125 -3.695312 7.5625 -3.4375 L 10 0 Z M 5.5 -4.375 C 6.425781 -4.375 7.132812 -4.570312 7.625 -4.96875 C 8.113281 -5.363281 8.359375 -5.9375 8.359375 -6.6875 C 8.359375 -7.425781 8.113281 -7.992188 7.625 -8.390625 C 7.132812 -8.785156 6.425781 -8.984375 5.5 -8.984375 L 3 -8.984375 L 3 -4.375 Z M 5.5 -4.375 "/></g></g></g><g fill="#737373" fill-opacity="1"><g transform="translate(207.732149, 222.451759)"><g><path d="M 5.796875 0.125 C 4.421875 0.125 3.351562 -0.265625 2.59375 -1.046875 C 1.832031 -1.835938 1.453125 -2.960938 1.453125 -4.421875 L 1.453125 -10.265625 L 2.921875 -10.265625 L 2.921875 -4.484375 C 2.921875 -2.285156 3.878906 -1.1875 5.796875 -1.1875 C 6.734375 -1.1875 7.453125 -1.457031 7.953125 -2 C 8.453125 -2.539062 8.703125 -3.367188 8.703125 -4.484375 L 8.703125 -10.265625 L 10.125 -10.265625 L 10.125 -4.421875 C 10.125 -2.953125 9.742188 -1.828125 8.984375 -1.046875 C 8.222656 -0.265625 7.160156 0.125 5.796875 0.125 Z M 5.796875 0.125 "/></g></g></g><g fill="#737373" fill-opacity="1"><g transform="translate(220.91224, 222.451759)"><g><path d="M 4.53125 0.125 C 3.757812 0.125 3.015625 0.00390625 2.296875 -0.234375 C 1.578125 -0.472656 1.007812 -0.785156 0.59375 -1.171875 L 1.140625 -2.3125 C 1.535156 -1.957031 2.035156 -1.671875 2.640625 -1.453125 C 3.253906 -1.234375 3.882812 -1.125 4.53125 -1.125 C 5.375 -1.125 6.003906 -1.269531 6.421875 -1.5625 C 6.847656 -1.851562 7.0625 -2.238281 7.0625 -2.71875 C 7.0625 -3.0625 6.945312 -3.34375 6.71875 -3.5625 C 6.488281 -3.789062 6.203125 -3.960938 5.859375 -4.078125 C 5.523438 -4.191406 5.050781 -4.320312 4.4375 -4.46875 C 3.664062 -4.65625 3.039062 -4.84375 2.5625 -5.03125 C 2.09375 -5.21875 1.6875 -5.503906 1.34375 -5.890625 C 1.007812 -6.273438 0.84375 -6.796875 0.84375 -7.453125 C 0.84375 -7.992188 0.988281 -8.484375 1.28125 -8.921875 C 1.570312 -9.359375 2.007812 -9.707031 2.59375 -9.96875 C 3.175781 -10.238281 3.90625 -10.375 4.78125 -10.375 C 5.382812 -10.375 5.976562 -10.296875 6.5625 -10.140625 C 7.15625 -9.984375 7.660156 -9.757812 8.078125 -9.46875 L 7.59375 -8.296875 C 7.164062 -8.566406 6.707031 -8.769531 6.21875 -8.90625 C 5.726562 -9.050781 5.25 -9.125 4.78125 -9.125 C 3.945312 -9.125 3.320312 -8.972656 2.90625 -8.671875 C 2.488281 -8.367188 2.28125 -7.976562 2.28125 -7.5 C 2.28125 -7.144531 2.394531 -6.859375 2.625 -6.640625 C 2.863281 -6.421875 3.15625 -6.25 3.5 -6.125 C 3.851562 -6.007812 4.328125 -5.882812 4.921875 -5.75 C 5.691406 -5.5625 6.3125 -5.375 6.78125 -5.1875 C 7.25 -5 7.648438 -4.710938 7.984375 -4.328125 C 8.328125 -3.953125 8.5 -3.441406 8.5 -2.796875 C 8.5 -2.265625 8.351562 -1.773438 8.0625 -1.328125 C 7.769531 -0.878906 7.320312 -0.523438 6.71875 -0.265625 C 6.125 -0.00390625 5.394531 0.125 4.53125 0.125 Z M 4.53125 0.125 "/></g></g></g><g fill="#737373" fill-opacity="1"><g transform="translate(231.600083, 222.451759)"><g><path d="M 10.359375 -10.265625 L 10.359375 0 L 8.890625 0 L 8.890625 -4.578125 L 3 -4.578125 L 3 0 L 1.53125 0 L 1.53125 -10.265625 L 3 -10.265625 L 3 -5.84375 L 8.890625 -5.84375 L 8.890625 -10.265625 Z M 10.359375 -10.265625 "/></g></g></g><g fill="#737373" fill-opacity="1"><g transform="translate(245.088031, 222.451759)"><g><path d="M 10.359375 -10.265625 L 10.359375 0 L 9.15625 0 L 3 -7.65625 L 3 0 L 1.53125 0 L 1.53125 -10.265625 L 2.734375 -10.265625 L 8.890625 -2.609375 L 8.890625 -10.265625 Z M 10.359375 -10.265625 "/></g></g></g><g fill="#737373" fill-opacity="1"><g transform="translate(258.575979, 222.451759)"><g><path d="M 8.078125 -2.5625 L 2.625 -2.5625 L 1.5 0 L -0.015625 0 L 4.625 -10.265625 L 6.078125 -10.265625 L 10.75 0 L 9.203125 0 Z M 7.5625 -3.734375 L 5.34375 -8.765625 L 3.140625 -3.734375 Z M 7.5625 -3.734375 "/></g></g></g><g fill="#737373" fill-opacity="1"><g transform="translate(270.899347, 222.451759)"><g/></g></g></svg>