<?xml version="1.0" encoding="UTF-8"?>
<svg width="26px" height="25px" viewBox="0 0 26 25" version="1.1" xmlns="http://www.w3.org/2000/svg" xmlns:xlink="http://www.w3.org/1999/xlink">
    <!-- Generator: sketchtool 49 (51002) - http://www.bohemiancoding.com/sketch -->
    <title>8A13A179-8588-4B85-864A-33A9C3CBC272</title>
    <desc>Created with sketchtool.</desc>
    <defs>
        <radialGradient cx="32.9683884%" cy="22.4287018%" fx="32.9683884%" fy="22.4287018%" r="0.145086847%" gradientTransform="translate(0.329684,0.224287),scale(0.960000,1.000000),translate(-0.329684,-0.224287)" id="radialGradient-1">
            <stop stop-color="#442F55" stop-opacity="0.98" offset="0%"></stop>
            <stop stop-color="#12002C" offset="100%"></stop>
        </radialGradient>
    </defs>
    <g id="Design" stroke="none" stroke-width="1" fill="none" fill-rule="evenodd">
        <g id="6a-Agency" transform="translate(-1091.000000, -4777.000000)" fill-rule="nonzero">
            <g id="Section-4" transform="translate(0.000000, 4172.000000)">
                <g id="logo" transform="translate(828.000000, 605.000000)">
                    <g id="AE" transform="translate(263.000000, 0.000000)">
                        <polygon id="Shape" fill="url(#radialGradient-1)" points="1 1 26 1 26 25 1 25"></polygon>
                        <path d="M1.08289948,1.0679811 L24.9118943,1.0679811 L24.9118943,23.9320189 L1.08289948,23.9320189 L1.08289948,1.0679811 Z M0,25 L26,25 L26,0 L0,0 L0,25 Z M18.3936724,12.0507291 C18.9455346,12.0507291 19.143372,12.0507291 19.1954345,12.030191 C19.1954345,11.9531731 19.2162595,11.9018279 19.2162595,11.8504826 C19.2162595,11.2754159 18.9351221,10.2074348 17.8105727,10.2074348 C16.7693232,10.2074348 16.3267922,11.1059766 16.217461,12.0558636 L18.3936724,12.0558636 L18.3936724,12.0507291 Z M16.196636,13.5140686 C16.217461,14.95687 16.9098919,15.9272951 18.5602723,15.9272951 C19.2006408,15.9272951 19.752503,15.8400082 20.3251902,15.5986856 C20.4032839,15.5678784 20.4553464,15.5781475 20.4553464,15.6757034 L20.4553464,17.0106798 C20.4553464,17.1185048 20.4241089,17.1698501 20.3460152,17.2263298 C19.773328,17.5035942 19.0548658,17.6319573 18.1698038,17.6319573 C15.3115739,17.6319573 14.2390869,15.5473403 14.2390869,13.2316697 C14.2390869,10.7106182 15.5614738,8.64653933 17.8886664,8.64653933 C20.2523028,8.64653933 21.0748899,10.6027932 21.0748899,12.1944958 C21.0748899,12.7079482 21.0436524,13.1238447 20.9863837,13.3292257 C20.9655587,13.4165126 20.9343212,13.4473198 20.845815,13.4678579 C20.6271526,13.498665 19.9919904,13.5448757 19.0392471,13.5448757 L16.2018422,13.5448757 L16.2018422,13.5140686 L16.196636,13.5140686 Z M10.39167,12.4255494 C10.0897076,11.2394742 9.3504205,8.65680838 9.07969563,7.40398439 L9.05887064,7.40398439 C8.82979575,8.65167386 8.23628354,10.767098 7.7937525,12.4255494 L10.39167,12.4255494 Z M7.34601522,14.1558842 L6.49219063,17.3495584 C6.47136564,17.4368453 6.44012815,17.4676525 6.33079696,17.4676525 L4.73768522,17.4676525 C4.62835402,17.4676525 4.60752903,17.4368453 4.62835402,17.3084822 L7.7052463,6.70055453 C7.75730877,6.51057712 7.7937525,6.35654138 7.81457749,5.82255083 C7.81457749,5.74553296 7.84581498,5.71472582 7.9030837,5.71472582 L10.1782139,5.71472582 C10.2563076,5.71472582 10.2875451,5.73526391 10.30837,5.82255083 L13.7549059,17.3290203 C13.7757309,17.4163072 13.7549059,17.4676525 13.6663997,17.4676525 L11.8806568,17.4676525 C11.7921506,17.4676525 11.7400881,17.4368453 11.7192631,17.3598275 L10.8289948,14.1558842 L7.34601522,14.1558842 Z" id="Shape" fill="#D8A1FF"></path>
                    </g>
                </g>
            </g>
        </g>
    </g>
</svg>