<svg width="512" height="512" viewBox="0 0 512 512" fill="none" xmlns="http://www.w3.org/2000/svg">
<g clip-path="url(#clip0_348_12)">
<path d="M457 344.4C431.9 364.7 404.4 381.6 374.5 393.5L428.9 487.7L482.9 510.7C492.7 514.9 503.8 508.5 505.1 497.9L512.1 439.6L457.1 344.4H457ZM499.5 249.8C504.4 242.1 501.4 231.8 493.4 227.4L465.3 211.8C457.8 207.6 448.7 210.3 444 217.5C403 281.2 332.3 320 256 320C232.1 320 208.8 315.7 186.6 308.5L254 191.8C254.7 191.8 255.3 192 256 192C256.7 192 257.4 191.8 258 191.8L309.1 280.3C340.3 271.3 368.7 254.5 391.7 231.4L339.9 141.7C347.4 128 352 112.6 352 96C352 43 309 0 256 0C203 0 160 43 160 96C160 112.6 164.6 128 172.1 141.7L103.8 260C91.2 248.4 79.8 235.4 70.1 221C65.3 213.9 56.1 211.4 48.7 215.7L20.9 231.8C13 236.3 10.3 246.7 15.3 254.3C30.9 277.9 50 298.5 71.3 316.3L0 439.7L7 498C8.3 508.6 19.4 515 29.2 510.8L83.2 487.8L154 365.2C186.1 377.3 220.6 384 256 384C355.1 384 446.9 333 499.5 249.9V249.8ZM256 64C273.7 64 288 78.3 288 96C288 113.7 273.7 128 256 128C238.3 128 224 113.7 224 96C224 78.3 238.3 64 256 64Z" fill="#49D7D1"/>
</g>
<defs>
<clipPath id="clip0_348_12">
<rect width="512" height="512" fill="white"/>
</clipPath>
</defs>
</svg>
