<svg width="352" height="512" viewBox="0 0 352 512" fill="none" xmlns="http://www.w3.org/2000/svg">
<g clip-path="url(#clip0_348_8)">
<path d="M96.1 454.4C96.1 460.7 98 466.9 101.5 472.1L118.6 497.8C121.514 502.189 125.467 505.791 130.107 508.285C134.747 510.78 139.932 512.09 145.2 512.1H206.9C212.168 512.09 217.353 510.78 221.993 508.285C226.633 505.791 230.586 502.189 233.5 497.8L250.6 472.1C254.104 466.861 255.982 460.703 256 454.4V416H96L96.1 454.4ZM0 176C0 220.4 16.5 260.9 43.6 291.8C60.1 310.7 86 350 95.8 383.3C95.8 383.6 95.9 383.8 95.9 384.1H256.1C256.1 383.8 256.2 383.6 256.2 383.3C266.1 350.1 291.9 310.7 308.4 291.8C335.6 260.9 352 220.4 352 176C352 78.6 272.9 -0.300002 175.5 -1.80653e-06C73.4 0.299998 0 83 0 176ZM176 96C131.9 96 96 131.9 96 176C96 184.8 88.8 192 80 192C71.2 192 64 184.8 64 176C64 114.2 114.2 64 176 64C184.8 64 192 71.2 192 80C192 88.8 184.8 96 176 96Z" fill="#FAA916"/>
</g>
<defs>
<clipPath id="clip0_348_8">
<rect width="352" height="512" fill="white"/>
</clipPath>
</defs>
</svg>
