<?xml version="1.0" encoding="UTF-8"?>
<svg width="17px" height="23px" viewBox="0 0 17 23" version="1.1" xmlns="http://www.w3.org/2000/svg" xmlns:xlink="http://www.w3.org/1999/xlink">
    <!-- Generator: sketchtool 49 (51002) - http://www.bohemiancoding.com/sketch -->
    <title>29F323AB-3090-438D-B801-1606C4F3272E</title>
    <desc>Created with sketchtool.</desc>
    <defs></defs>
    <g id="Design" stroke="none" stroke-width="1" fill="none" fill-rule="evenodd">
        <g id="6a-Agency" transform="translate(-833.000000, -4837.000000)" fill-rule="nonzero">
            <g id="Section-4" transform="translate(0.000000, 4172.000000)">
                <g id="logo" transform="translate(828.000000, 605.000000)">
                    <g id="Figma" transform="translate(5.000000, 60.000000)">
                        <path d="M4.25,23 C6.59581234,23 8.5,21.1450972 8.5,18.86 L8.5,14.72 L4.25,14.72 C1.90418766,14.72 0,16.5749028 0,18.86 C0,21.1450972 1.90418766,23 4.25,23 Z" id="path0_fill" fill="#0ACF83"></path>
                        <path d="M0,12.4204966 C0,10.1351253 1.90418766,8.28 4.25,8.28 L8.5,8.28 L8.5,16.56 L4.24898008,16.5599996 C1.90316775,16.5609932 0,14.7058679 0,12.4204966 Z" id="path1_fill" fill="#A259FF"></path>
                        <path d="M0,4.14049682 C0,1.85512541 1.90339614,0 4.24948998,0 L8.5,0 L8.5,8.28 L4.24948998,8.28 C1.90339614,8.28 0,6.42586823 0,4.14049682 Z" id="path1_fill_1_" fill="#F24E1E"></path>
                        <path d="M8.5,0 L12.75,0 C15.0958123,0 17,1.85490281 17,4.14 C17,6.42509719 15.0958123,8.28 12.75,8.28 L8.5,8.28 L8.5,0 Z" id="path2_fill" fill="#FF7262"></path>
                        <path d="M17,12.42 C17,14.7050972 15.0955838,16.56 12.74949,16.56 C10.4033961,16.56 8.5,14.7050972 8.5,12.42 C8.5,10.1349028 10.4044162,8.28 12.75051,8.28 C15.0966039,8.28 17,10.1349028 17,12.42 Z" id="path3_fill" fill="#1ABCFE"></path>
                    </g>
                </g>
            </g>
        </g>
    </g>
</svg>