<?xml version="1.0" encoding="UTF-8"?>
<svg width="28px" height="24px" viewBox="0 0 28 24" version="1.1" xmlns="http://www.w3.org/2000/svg" xmlns:xlink="http://www.w3.org/1999/xlink">
    <!-- Generator: sketchtool 49 (51002) - http://www.bohemiancoding.com/sketch -->
    <title>33C31C23-C584-4822-B74D-BD579A2D53A9</title>
    <desc>Created with sketchtool.</desc>
    <defs>
        <polygon id="path-1" points="13.5 0 5.89095703 0.790254768 0 8.55801987 13.5 24 27 8.55801987 21.1091484 0.790254768"></polygon>
    </defs>
    <g id="Design" stroke="none" stroke-width="1" fill="none" fill-rule="evenodd">
        <g id="6a-Agency" transform="translate(-959.000000, -4778.000000)">
            <g id="Section-4" transform="translate(0.000000, 4172.000000)">
                <g id="logo" transform="translate(828.000000, 605.000000)">
                    <g id="Skecth" transform="translate(131.500000, 1.000000)">
                        <mask id="mask-2" fill="white">
                            <use xlink:href="#path-1"></use>
                        </mask>
                        <use id="Shape" fill="#FDB300" fill-rule="nonzero" xlink:href="#path-1"></use>
                        <polygon id="Shape" fill="#EB6C00" fill-rule="nonzero" mask="url(#mask-2)" points="0 9 13 24 5.26560937 9"></polygon>
                        <polygon id="Shape" fill="#EB6C00" fill-rule="nonzero" mask="url(#mask-2)" points="20.7343495 9 13 24 26 9"></polygon>
                        <polygon id="Shape" fill="#FDAD00" fill-rule="nonzero" mask="url(#mask-2)" points="5 9 13.5 24 22 9"></polygon>
                        <polygon id="Shape" fill="#FDD231" fill-rule="nonzero" mask="url(#mask-2)" points="6.42114662 0.831067585 6 9 14 0"></polygon>
                        <polygon id="Shape" fill="#FDD231" fill-rule="nonzero" mask="url(#mask-2)" points="21 9 20.5789529 0.830958635 13 0"></polygon>
                        <polygon id="Shape" fill="#FDAD00" fill-rule="nonzero" mask="url(#mask-2)" points="0 9 4.64112434 9 5 1"></polygon>
                        <polygon id="Shape" fill="#FEEEB7" fill-rule="nonzero" mask="url(#mask-2)" points="13.5 0 5 9 22 9"></polygon>
                    </g>
                </g>
            </g>
        </g>
    </g>
</svg>