<svg width="219" height="117" viewBox="0 0 219 117" fill="none" xmlns="http://www.w3.org/2000/svg">
<path d="M125.938 78.0052V85.3593C125.938 87.401 126.344 87.9479 126.344 89.8489L127.568 108.5C128.115 111.906 127.432 116.401 130.156 116.401C132.333 116.401 132.333 112.177 132.609 110.135C134.24 99.927 143.5 69.4323 149.625 65.3437C150.172 71.6093 151.667 79.776 155.208 85.0885C156.839 87.1302 158.609 87.9479 160.38 87.9479C164.599 87.9479 168.823 83.4531 171.953 80.3229C172.906 79.5052 173.313 78.9583 174.13 78.0052L178.625 72.6979C179.302 71.8802 180.391 71.1979 180.391 69.7031C180.391 68.6145 179.578 68.3437 178.896 68.3437C178.625 68.3437 178.349 68.3437 178.078 68.4791L173.724 73.2448C170.724 76.7812 166.234 82.0937 162.286 83.8593C161.604 84.1354 161.063 84.4062 160.38 84.4062C153.708 84.4062 155.208 61.9427 150.443 61.9427C146.766 61.9427 144.589 66.4375 142.953 69.8385C136.828 81.6823 134.786 88.0833 131.38 100.469C131.38 100.604 131.245 101.286 131.109 101.422L130.974 101.833C130.974 101.833 130.839 101.969 130.839 102.104C130.839 100.062 130.568 99.5156 130.568 97.8854C130.427 96.25 130.568 94.6145 130.568 92.9843C130.292 88.8958 129.203 72.151 130.974 69.8385C132.609 67.7968 134.786 66.1614 138.87 59.901C146.083 49.2812 152.214 37.302 154.797 24.0937C155.885 19.1927 156.568 11.8437 154.797 7.34892C153.979 4.76558 152.214 2.44788 149.219 2.44788C140.37 2.44788 133.422 26.5468 131.927 32.1302C128.521 45.3333 125.938 61.3958 125.938 78.0052ZM130.839 66.4375C130.839 51.7343 136.557 20.6927 146.083 8.16663C147.313 6.67184 148.266 5.98954 149.078 5.98954C152.214 5.98954 153.026 14.7031 151.26 23.552C149.354 33.625 144.724 45.1979 139.552 53.9114C138.052 56.4948 132.88 64.9375 130.839 66.4375Z" fill="#FEF5E4"/>
<path d="M181.473 115.307C181.473 113.13 181.338 110.818 181.338 108.641C181.473 107.141 181.749 107.141 181.749 105.646C181.885 99.9271 183.109 92.3021 183.244 90.125C185.286 90.6667 191.14 97.75 199.312 97.75C205.572 97.75 211.697 85.0885 214.827 79.2344C215.781 77.7344 218.369 72.5625 218.369 71.0625C218.369 70.5208 218.098 70.1094 217.551 70.1094C216.869 70.1094 215.921 70.7917 214.827 73.1042L209.249 83.724C204.755 91.0781 202.577 94.8906 198.765 94.8906C195.499 94.8906 186.786 89.9896 184.744 87.1302C186.374 86.0417 187.874 85.224 189.51 84C190.869 83.1823 192.64 81.6823 193.999 80.5938C200.671 73.651 201.077 63.5781 194.682 63.5781C190.598 63.5781 187.874 68.6146 186.239 71.8802L185.833 72.6979C184.468 75.1458 181.473 83.724 181.473 86.8542H181.067C181.067 82.7708 181.067 78.6875 181.338 75.0104C181.614 73.2448 181.338 70.9271 181.338 69.0208C181.473 66.026 182.02 66.2969 183.244 64.8021C193.864 51.7344 203.801 26.5469 203.801 9.80208C203.801 4.35417 201.624 0 198.359 0C195.223 0 191.14 4.08333 186.921 14.974C186.515 16.0625 186.374 17.151 185.833 18.2396C181.473 29.5417 179.025 51.8698 178.208 64.1198C178.072 65.3438 177.801 67.526 177.937 68.2031C178.208 70.5208 177.525 82.0938 177.525 85.3594C177.525 90.8021 177.937 113.813 178.755 115.172C179.161 115.854 179.567 115.99 179.979 115.99C180.385 115.99 180.932 115.583 181.473 115.307ZM182.02 63.3021C182.02 59.901 182.426 57.4479 182.562 54.4531C184.062 39.8906 185.421 31.8542 189.645 18.1042C190.463 15.7917 194.952 2.99479 198.218 2.99479C198.359 2.99479 198.494 2.99479 198.63 2.99479C200.4 4.08333 201.077 7.76042 201.077 10.6198C201.218 15.2448 199.312 23.8229 197.947 28.0417L192.505 43.0208C192.093 44.2448 191.551 45.3333 191.005 46.5573C189.369 50.9167 186.104 57.724 183.244 61.6719L182.562 62.349L182.02 63.3021ZM184.744 83.5885C185.562 80.3229 190.187 66.2969 194.682 66.2969C197.676 66.2969 197.812 74.0573 188.827 81L184.744 83.5885Z" fill="#FEF5E4"/>
<path d="M130.525 68.1747C120.082 70.3205 110.009 71.3361 99.3373 70.8517C88.6654 70.3674 78.0925 68.534 67.6654 66.2059C57.0873 63.8465 46.6289 60.9663 36.0873 58.4455C27.6029 56.409 18.3529 54.6017 10.1133 58.5445C2.82165 62.0184 -2.68877 71.6017 2.7904 78.9351C3.24873 79.5601 4.53519 79.2163 4.18623 78.3465C0.550818 69.6695 6.83727 61.7736 15.1602 59.6122C24.4467 57.1955 34.5664 60.659 43.5717 62.8726C62.0925 67.3986 80.6967 72.3101 99.8321 72.9767C110.004 73.3257 121.108 72.4507 130.749 69.008C130.863 68.9767 130.947 68.909 131.004 68.8049C131.061 68.7007 131.077 68.5913 131.046 68.4767C131.014 68.3674 130.947 68.2788 130.842 68.2215C130.744 68.159 130.634 68.1434 130.52 68.1747H130.525Z" fill="#FEF5E4"/>
<mask id="mask0_338_239" style="mask-type:luminance" maskUnits="userSpaceOnUse" x="121" y="89" width="18" height="20">
<path d="M121.369 89.8414H138.369V108.065H121.369V89.8414Z" fill="white"/>
</mask>
<g mask="url(#mask0_338_239)">
<path d="M121.369 89.8414H138.37V108.065H121.369V89.8414Z" fill="#212522"/>
</g>
<path d="M11.7708 91.9489V105.636H9.8125V99.5322H1.95833V105.636H0V91.9489H1.95833V97.8447H9.8125V91.9489H11.7708Z" fill="#FEF5E4"/>
<path d="M26.7135 102.22H19.4427L17.9427 105.636H15.9219L22.1094 91.9489H24.0469L30.276 105.636H28.2135L26.7135 102.22ZM26.026 100.657L23.0677 93.9489L20.1302 100.657H26.026Z" fill="#FEF5E4"/>
<path d="M43.5501 105.636L40.6126 101.428C40.248 101.459 39.9668 101.47 39.7585 101.47H36.3626V105.636H34.4043V91.9489H39.7585C41.5189 91.9489 42.9095 92.3759 43.9251 93.2197C44.9355 94.0686 45.446 95.2353 45.446 96.7197C45.446 97.777 45.1803 98.678 44.6543 99.428C44.1387 100.168 43.4043 100.709 42.446 101.053L45.696 105.636H43.5501ZM39.696 99.803C40.9303 99.803 41.873 99.5426 42.5293 99.0114C43.1803 98.4853 43.5085 97.7197 43.5085 96.7197C43.5085 95.7353 43.1803 94.9801 42.5293 94.4489C41.873 93.9228 40.9303 93.6572 39.696 93.6572H36.3626V99.803H39.696Z" fill="#FEF5E4"/>
<path d="M50.7266 91.9489H52.6849V105.636H50.7266V91.9489Z" fill="#FEF5E4"/>
<path d="M63.3568 99.553L60.8568 102.095V105.636H58.8984V91.9489H60.8568V99.5947L68.2943 91.9489H70.5234L64.6693 98.1155L70.8776 105.636H68.6068L63.3568 99.553Z" fill="#FEF5E4"/>
<path d="M84.2103 105.636L81.2728 101.428C80.9082 101.459 80.627 101.47 80.4186 101.47H77.0228V105.636H75.0645V91.9489H80.4186C82.179 91.9489 83.5697 92.3759 84.5853 93.2197C85.5957 94.0686 86.1061 95.2353 86.1061 96.7197C86.1061 97.777 85.8405 98.678 85.3145 99.428C84.7988 100.168 84.0645 100.709 83.1061 101.053L86.3561 105.636H84.2103ZM80.3561 99.803C81.5905 99.803 82.5332 99.5426 83.1895 99.0114C83.8405 98.4853 84.1686 97.7197 84.1686 96.7197C84.1686 95.7353 83.8405 94.9801 83.1895 94.4489C82.5332 93.9228 81.5905 93.6572 80.3561 93.6572H77.0228V99.803H80.3561Z" fill="#FEF5E4"/>
<path d="M97.0749 105.803C95.2415 105.803 93.8145 105.282 92.804 104.241C91.7884 103.188 91.2832 101.688 91.2832 99.7405V91.9489H93.2415V99.6572C93.2415 102.589 94.5176 104.053 97.0749 104.053C98.3249 104.053 99.2832 103.694 99.9499 102.97C100.617 102.251 100.95 101.147 100.95 99.6572V91.9489H102.846V99.7405C102.846 101.699 102.335 103.199 101.325 104.241C100.309 105.282 98.8926 105.803 97.0749 105.803Z" fill="#FEF5E4"/>
<path d="M112.961 105.803C111.93 105.803 110.94 105.642 109.982 105.324C109.023 105.006 108.263 104.59 107.711 104.074L108.44 102.553C108.966 103.027 109.633 103.407 110.44 103.699C111.258 103.991 112.096 104.136 112.961 104.136C114.086 104.136 114.924 103.944 115.482 103.553C116.049 103.168 116.336 102.652 116.336 102.011C116.336 101.553 116.18 101.178 115.878 100.886C115.57 100.584 115.19 100.355 114.732 100.199C114.284 100.048 113.654 99.876 112.836 99.6781C111.805 99.4281 110.971 99.1781 110.336 98.9281C109.711 98.6781 109.169 98.2979 108.711 97.7823C108.263 97.2719 108.044 96.5739 108.044 95.6989C108.044 94.9802 108.237 94.3239 108.628 93.7406C109.013 93.1573 109.596 92.6937 110.378 92.3448C111.154 91.9854 112.128 91.8031 113.294 91.8031C114.096 91.8031 114.888 91.9073 115.669 92.1156C116.461 92.3239 117.133 92.626 117.69 93.0114L117.044 94.5739C116.471 94.2146 115.862 93.9437 115.211 93.7614C114.555 93.5687 113.919 93.4698 113.294 93.4698C112.18 93.4698 111.346 93.6729 110.794 94.0739C110.237 94.4802 109.961 95.001 109.961 95.6364C109.961 96.1104 110.112 96.4906 110.419 96.7823C110.737 97.0739 111.128 97.3031 111.586 97.4698C112.055 97.626 112.69 97.7927 113.482 97.9698C114.508 98.2198 115.336 98.4698 115.961 98.7198C116.586 98.9698 117.117 99.3552 117.565 99.8656C118.023 100.366 118.253 101.048 118.253 101.907C118.253 102.616 118.055 103.272 117.669 103.866C117.279 104.465 116.68 104.939 115.878 105.282C115.086 105.631 114.112 105.803 112.961 105.803Z" fill="#FEF5E4"/>
<path d="M134.982 91.9489V105.636H133.023V99.5322H125.169V105.636H123.211V91.9489H125.169V97.8447H133.023V91.9489H134.982Z" fill="#FEF5E4"/>
<path d="M152.966 91.9489V105.636H151.362L143.154 95.428V105.636H141.195V91.9489H142.799L151.008 102.157V91.9489H152.966Z" fill="#FEF5E4"/>
<path d="M167.909 102.22H160.638L159.138 105.636H157.117L163.305 91.9489H165.242L171.471 105.636H169.409L167.909 102.22ZM167.221 100.657L164.263 93.9489L161.326 100.657H167.221Z" fill="#FEF5E4"/>
</svg>
